:SAMPLES-PER-SECOND 30
:FULLY-SPECIFIED
:DEGREES
359
root  -23.0032 17.1679 5.2328 73.5074 -83.9225 -83.6526
RightUpLeg  -37.2614 -9.60291 -15.9358
RightLeg  142.154 15.0945 -10.1591
RightFoot  -19.446 1.03491 16.3789
RightToes  0.000482159 0.542163 -0.142577
Spine  30.9312 -0.282463 1.10641
Spine1  -1.62027 -1.13599 5.47413
HEad  38.3863 -10.7158 -17.6281
LeftShoulder1  0.0907142 1.79445 3.66566
LeftArm  -99.9159 -37.5873 14.2367
LeftForeArm  140.279 -81.0357 -106.8
LeftHand  -0.25398 0.0180481 5.50724
RightShoulder  0.732294 -17.6447 -15.4517
RightArm  -100.86 48.2592 -16.5089
RightForeArm  41.208 75.617 45.15
RightHand  -11.8196 24.9798 -43.3641
LeftUpLeg  -43.3952 -3.34645 5.11861
LeftLeg  148.488 -2.47057 1.03206
LeftFoot  -23.48 -1.37929 -14.2312
LeftToes  1.06244e-005 4.65856e-005 -8.18505e-006
360
root  -23.0295 17.1786 5.21198 75.3942 -84.1906 -85.2499
RightUpLeg  -37.6777 -9.76268 -15.933
RightLeg  142.114 15.445 -10.4116
RightFoot  -19.4764 1.01389 16.0301
RightToes  0.000482159 0.542163 -0.142577
Spine  30.8462 -0.289728 1.20218
Spine1  -1.33861 -1.1358 5.48021
HEad  38.3805 -10.8328 -17.8241
LeftShoulder1  0.0976362 1.69252 3.56419
LeftArm  -99.5879 -37.8987 14.3423
LeftForeArm  135.483 -81.2225 -101.992
LeftHand  -0.25398 0.0180481 5.50724
RightShoulder  0.742195 -17.4895 -15.5969
RightArm  -100.605 48.4454 -16.3914
RightForeArm  41.7669 75.6513 45.1424
RightHand  -11.8133 24.9789 -43.3444
LeftUpLeg  -43.5563 -3.22099 5.11856
LeftLeg  148.42 -2.15459 0.85643
LeftFoot  -23.5131 -1.38166 -14.2163
LeftToes  1.06244e-005 4.65856e-005 -8.18505e-006
361
root  -23.0612 17.2024 5.18919 77.206 -84.4063 -86.8298
RightUpLeg  -37.9885 -10.0913 -15.7172
RightLeg  141.931 16.0679 -10.9057
RightFoot  -19.4983 0.978647 15.5039
RightToes  0.000482159 0.542163 -0.142577
Spine  30.8567 -0.328356 1.33284
Spine1  -1.11511 -1.1462 5.45821
HEad  38.2791 -10.7319 -17.7743
LeftShoulder1  0.100855 1.64661 3.51669
LeftArm  -99.3847 -38.2037 14.4984
LeftForeArm  131.649 -81.3261 -98.1115
LeftHand  -0.25398 0.0180481 5.50724
RightShoulder  0.723205 -17.3601 -15.4994
RightArm  -100.552 48.6833 -16.6585
RightForeArm  42.1876 75.6451 44.9559
RightHand  -11.8191 25.0283 -43.2989
LeftUpLeg  -43.6338 -3.1132 5.11422
LeftLeg  148.302 -1.92515 0.731139
LeftFoot  -23.4889 -1.38537 -14.2777
LeftToes  1.06244e-005 4.65856e-005 -8.18505e-006
362
root  -23.0992 17.2377 5.16242 78.9855 -84.5789 -88.4095
RightUpLeg  -38.1736 -10.4932 -15.3984
RightLeg  141.657 16.8197 -11.5282
RightFoot  -19.6284 0.976253 15.241
RightToes  0.000482159 0.542163 -0.142577
Spine  30.8921 -0.380763 1.48027
Spine1  -0.95611 -1.1572 5.5004
HEad  38.1414 -10.4779 -17.6409
LeftShoulder1  0.107818 1.53018 3.47392
LeftArm  -99.232 -38.3706 14.6575
LeftForeArm  128.879 -81.377 -95.2804
LeftHand  -0.25398 0.0180481 5.50724
RightShoulder  0.714312 -17.2362 -15.4808
RightArm  -100.461 48.9281 -16.853
RightForeArm  42.3641 75.621 44.7571
RightHand  -11.7576 24.9631 -43.1802
LeftUpLeg  -43.6399 -3.05109 5.16861
LeftLeg  148.149 -1.6886 0.601861
LeftFoot  -23.4707 -1.39713 -14.407
LeftToes  1.06244e-005 4.65856e-005 -8.18505e-006
363
root  -23.1457 17.2757 5.13035 81.1728 -84.7793 -90.3633
RightUpLeg  -38.3786 -10.8055 -15.1532
RightLeg  141.409 17.4357 -12.0532
RightFoot  -19.7331 0.98121 15.1283
RightToes  0.000482159 0.542163 -0.142577
Spine  30.9072 -0.403543 1.58758
Spine1  -0.890102 -1.15124 5.58154
HEad  38.0847 -10.1429 -17.4985
LeftShoulder1  0.117239 1.38412 3.38896
LeftArm  -99.0707 -38.41 14.7584
LeftForeArm  127.258 -81.4017 -93.5298
LeftHand  -0.25398 0.0180481 5.50724
RightShoulder  0.746499 -17.1549 -15.7818
RightArm  -100.173 49.133 -16.6918
RightForeArm  42.0707 75.5517 44.4794
RightHand  -11.6829 24.8351 -43.0992
LeftUpLeg  -43.6044 -2.95226 5.21844
LeftLeg  147.989 -1.45272 0.471524
LeftFoot  -23.5389 -1.41301 -14.477
LeftToes  1.06244e-005 4.65856e-005 -8.18505e-006
364
root  -23.197 17.3093 5.09082 83.6974 -85.0082 -92.6302
RightUpLeg  -38.6678 -10.9677 -14.9936
RightLeg  141.242 17.8414 -12.4032
RightFoot  -19.6797 0.959727 14.9291
RightToes  0.000482159 0.542163 -0.142577
Spine  30.9549 -0.39796 1.64688
Spine1  -0.920602 -1.12783 5.60803
HEad  38.0602 -9.77878 -17.2156
LeftShoulder1  0.121736 1.31332 3.35241
LeftArm  -98.8877 -38.4358 14.7445
LeftForeArm  126.951 -81.4134 -93.034
LeftHand  -0.25398 0.0180481 5.50724
RightShoulder  0.779715 -17.1047 -16.08
RightArm  -99.8536 49.2798 -16.5626
RightForeArm  41.4044 75.3992 43.8937
RightHand  -11.655 24.7761 -43.0833
LeftUpLeg  -43.5742 -2.77041 5.19119
LeftLeg  147.834 -1.33166 0.406034
LeftFoot  -23.5989 -1.42163 -14.4888
LeftToes  1.06244e-005 4.65856e-005 -8.18505e-006
